<svg width="209" height="200" viewBox="0 0 209 200" fill="none" xmlns="http://www.w3.org/2000/svg">
<g filter="url(#filter0_f_2127_291)">
<circle cx="109.4" cy="98.4606" r="52.8346" fill="#FFEF5F"/>
<path d="M119.807 33.6201H98.1927L108.999 4L119.807 33.6201Z" fill="#FFEF5F"/>
<path d="M119.807 165.706H98.1929L109 195.325L119.807 165.706Z" fill="#FFEF5F"/>
<path d="M119.807 33.6201H98.1927L108.999 4L119.807 33.6201Z" fill="#FFEF5F"/>
<path d="M119.807 165.706H98.1929L109 195.325L119.807 165.706Z" fill="#FFEF5F"/>
<path d="M152.023 48.4024L133.441 37.3626L157.86 17.4181L152.023 48.4024Z" fill="#FFEF5F"/>
<path d="M84.5582 161.96L65.9759 150.921L60.1391 181.905L84.5582 161.96Z" fill="#FFEF5F"/>
<path d="M172.169 77.5692L161.832 58.5869L193.013 53.9134L172.169 77.5692Z" fill="#FFEF5F"/>
<path d="M56.1671 140.738L45.8303 121.756L24.9865 145.412L56.1671 140.738Z" fill="#FFEF5F"/>
<path d="M174.592 112.932L175.401 91.3332L204.595 103.24L174.592 112.932Z" fill="#FFEF5F"/>
<path d="M42.5984 107.992L43.4071 86.3924L13.4044 96.0833L42.5984 107.992Z" fill="#FFEF5F"/>
<path d="M158.613 144.572L170.339 126.416L189.357 151.565L158.613 144.572Z" fill="#FFEF5F"/>
<path d="M47.6592 72.9064L59.3865 54.7503L28.6423 47.7582L47.6592 72.9064Z" fill="#FFEF5F"/>
<path d="M128.714 163.614L148.07 153.994L151.574 185.328L128.714 163.614Z" fill="#FFEF5F"/>
<path d="M69.9298 45.329L89.2855 35.7097L66.4262 13.995L69.9298 45.329Z" fill="#FFEF5F"/>
</g>
<circle cx="109.4" cy="98.4606" r="52.8346" fill="#FFEF5F"/>
<path d="M119.807 33.6201H98.1927L108.999 4L119.807 33.6201Z" fill="#FFEF5F"/>
<path d="M119.807 165.706H98.1929L109 195.325L119.807 165.706Z" fill="#FFEF5F"/>
<path d="M119.807 33.6201H98.1927L108.999 4L119.807 33.6201Z" fill="#FFEF5F"/>
<path d="M119.807 165.706H98.1929L109 195.325L119.807 165.706Z" fill="#FFEF5F"/>
<path d="M152.023 48.4024L133.441 37.3626L157.86 17.4181L152.023 48.4024Z" fill="#FFEF5F"/>
<path d="M84.5582 161.96L65.9759 150.921L60.1391 181.905L84.5582 161.96Z" fill="#FFEF5F"/>
<path d="M172.169 77.5692L161.832 58.5869L193.013 53.9134L172.169 77.5692Z" fill="#FFEF5F"/>
<path d="M56.1671 140.738L45.8303 121.756L24.9865 145.412L56.1671 140.738Z" fill="#FFEF5F"/>
<path d="M174.592 112.932L175.401 91.3332L204.595 103.24L174.592 112.932Z" fill="#FFEF5F"/>
<path d="M42.5984 107.992L43.4071 86.3924L13.4044 96.0833L42.5984 107.992Z" fill="#FFEF5F"/>
<path d="M158.613 144.572L170.339 126.416L189.357 151.565L158.613 144.572Z" fill="#FFEF5F"/>
<path d="M47.6592 72.9064L59.3865 54.7503L28.6423 47.7582L47.6592 72.9064Z" fill="#FFEF5F"/>
<path d="M128.714 163.614L148.07 153.994L151.574 185.328L128.714 163.614Z" fill="#FFEF5F"/>
<path d="M69.9298 45.329L89.2855 35.7097L66.4262 13.995L69.9298 45.329Z" fill="#FFEF5F"/>
<circle cx="95" cy="142.081" r="25" fill="#FFD067"/>
<rect x="27" y="145.081" width="130" height="50" rx="25" fill="#FFE7B2"/>
<circle cx="50" cy="145.081" r="50" fill="#FFE7CE"/>
<defs>
<filter id="filter0_f_2127_291" x="9.40442" y="0" width="199.191" height="199.325" filterUnits="userSpaceOnUse" color-interpolation-filters="sRGB">
<feFlood flood-opacity="0" result="BackgroundImageFix"/>
<feBlend mode="normal" in="SourceGraphic" in2="BackgroundImageFix" result="shape"/>
<feGaussianBlur stdDeviation="2" result="effect1_foregroundBlur_2127_291"/>
</filter>
</defs>
</svg>
