<svg width="209" height="200" viewBox="0 0 209 200" fill="none" xmlns="http://www.w3.org/2000/svg">
<g filter="url(#filter0_f_2127_290)">
<circle cx="109.4" cy="98.4606" r="52.8346" fill="#FFCD4F"/>
<path d="M119.807 33.6201H98.1927L108.999 4L119.807 33.6201Z" fill="#FFCD4F"/>
<path d="M119.807 165.706H98.1929L109 195.325L119.807 165.706Z" fill="#FFCD4F"/>
<path d="M119.807 33.6201H98.1927L108.999 4L119.807 33.6201Z" fill="#FFCD4F"/>
<path d="M119.807 165.706H98.1929L109 195.325L119.807 165.706Z" fill="#FFCD4F"/>
<path d="M152.023 48.4024L133.441 37.3626L157.86 17.4181L152.023 48.4024Z" fill="#FFCD4F"/>
<path d="M84.558 161.96L65.9758 150.921L60.1389 181.905L84.558 161.96Z" fill="#FFCD4F"/>
<path d="M172.169 77.5692L161.832 58.5869L193.013 53.9134L172.169 77.5692Z" fill="#FFCD4F"/>
<path d="M56.1671 140.738L45.8303 121.756L24.9865 145.412L56.1671 140.738Z" fill="#FFCD4F"/>
<path d="M174.592 112.932L175.401 91.3332L204.595 103.24L174.592 112.932Z" fill="#FFCD4F"/>
<path d="M42.5983 107.992L43.407 86.3924L13.4043 96.0833L42.5983 107.992Z" fill="#FFCD4F"/>
<path d="M158.613 144.572L170.339 126.416L189.357 151.565L158.613 144.572Z" fill="#FFCD4F"/>
<path d="M47.6591 72.9064L59.3864 54.7503L28.6422 47.7582L47.6591 72.9064Z" fill="#FFCD4F"/>
<path d="M128.714 163.614L148.07 153.994L151.574 185.328L128.714 163.614Z" fill="#FFCD4F"/>
<path d="M69.9299 45.329L89.2856 35.7097L66.4263 13.995L69.9299 45.329Z" fill="#FFCD4F"/>
</g>
<circle cx="109.4" cy="98.4606" r="52.8346" fill="#FFCD4F"/>
<path d="M119.807 33.6201H98.1927L108.999 4L119.807 33.6201Z" fill="#FFCD4F"/>
<path d="M119.807 165.706H98.1929L109 195.325L119.807 165.706Z" fill="#FFCD4F"/>
<path d="M119.807 33.6201H98.1927L108.999 4L119.807 33.6201Z" fill="#FFCD4F"/>
<path d="M119.807 165.706H98.1929L109 195.325L119.807 165.706Z" fill="#FFCD4F"/>
<path d="M152.023 48.4024L133.441 37.3626L157.86 17.4181L152.023 48.4024Z" fill="#FFCD4F"/>
<path d="M84.558 161.96L65.9758 150.921L60.1389 181.905L84.558 161.96Z" fill="#FFCD4F"/>
<path d="M172.169 77.5692L161.832 58.5869L193.013 53.9134L172.169 77.5692Z" fill="#FFCD4F"/>
<path d="M56.1671 140.738L45.8303 121.756L24.9865 145.412L56.1671 140.738Z" fill="#FFCD4F"/>
<path d="M174.592 112.932L175.401 91.3332L204.595 103.24L174.592 112.932Z" fill="#FFCD4F"/>
<path d="M42.5983 107.992L43.407 86.3924L13.4043 96.0833L42.5983 107.992Z" fill="#FFCD4F"/>
<path d="M158.613 144.572L170.339 126.416L189.357 151.565L158.613 144.572Z" fill="#FFCD4F"/>
<path d="M47.6591 72.9064L59.3864 54.7503L28.6422 47.7582L47.6591 72.9064Z" fill="#FFCD4F"/>
<path d="M128.714 163.614L148.07 153.994L151.574 185.328L128.714 163.614Z" fill="#FFCD4F"/>
<path d="M69.9299 45.329L89.2856 35.7097L66.4263 13.995L69.9299 45.329Z" fill="#FFCD4F"/>
<circle cx="95" cy="142.081" r="25" fill="#FFF9C4"/>
<rect x="27" y="145.081" width="130" height="50" rx="25" fill="#FFD476"/>
<circle cx="50" cy="145.081" r="50" fill="#FFE6CB"/>
<defs>
<filter id="filter0_f_2127_290" x="9.4043" y="0" width="199.191" height="199.325" filterUnits="userSpaceOnUse" color-interpolation-filters="sRGB">
<feFlood flood-opacity="0" result="BackgroundImageFix"/>
<feBlend mode="normal" in="SourceGraphic" in2="BackgroundImageFix" result="shape"/>
<feGaussianBlur stdDeviation="2" result="effect1_foregroundBlur_2127_290"/>
</filter>
</defs>
</svg>
