<svg width="196" height="202" viewBox="0 0 196 202" fill="none" xmlns="http://www.w3.org/2000/svg">
<g filter="url(#filter0_f_2127_31)">
<path d="M123.442 13.4562C124.115 13.579 124.784 13.7103 125.45 13.8502C112.037 22.1904 102.06 35.9463 99.0029 52.7084C93.2557 84.2211 114.143 114.426 145.656 120.173C157.393 122.314 168.948 120.758 179.126 116.336C165.801 148.084 131.8 167.455 96.5294 161.022C55.7802 153.591 28.771 114.532 36.2027 73.783C43.6344 33.0338 82.6927 6.02457 123.442 13.4562Z" fill="white"/>
</g>
<g filter="url(#filter1_d_2127_31)">
<path d="M123.696 13.5373C124.369 13.66 125.038 13.7914 125.703 13.9313C112.29 22.2714 102.314 36.0273 99.2565 52.7895C93.5094 84.3022 114.396 114.507 145.909 120.254C157.647 122.395 169.202 120.839 179.38 116.417C166.055 148.165 132.053 167.536 96.7831 161.103C56.0339 153.672 29.0247 114.613 36.4564 73.864C43.888 33.1148 82.9464 6.10562 123.696 13.5373Z" fill="white"/>
</g>
<circle cx="95" cy="148.081" r="25" fill="#C4D0FF"/>
<rect x="27" y="151.081" width="130" height="50" rx="25" fill="#76C2FF"/>
<circle cx="50" cy="151.081" r="50" fill="#ECF6FF"/>
<defs>
<filter id="filter0_f_2127_31" x="30.5727" y="7.82656" width="152.954" height="158.825" filterUnits="userSpaceOnUse" color-interpolation-filters="sRGB">
<feFlood flood-opacity="0" result="BackgroundImageFix"/>
<feBlend mode="normal" in="SourceGraphic" in2="BackgroundImageFix" result="shape"/>
<feGaussianBlur stdDeviation="2.2" result="effect1_foregroundBlur_2127_31"/>
</filter>
<filter id="filter1_d_2127_31" x="31.2263" y="12.3076" width="152.154" height="158.025" filterUnits="userSpaceOnUse" color-interpolation-filters="sRGB">
<feFlood flood-opacity="0" result="BackgroundImageFix"/>
<feColorMatrix in="SourceAlpha" type="matrix" values="0 0 0 0 0 0 0 0 0 0 0 0 0 0 0 0 0 0 127 0" result="hardAlpha"/>
<feOffset dy="4"/>
<feGaussianBlur stdDeviation="2"/>
<feComposite in2="hardAlpha" operator="out"/>
<feColorMatrix type="matrix" values="0 0 0 0 0 0 0 0 0 0 0 0 0 0 0 0 0 0 0.25 0"/>
<feBlend mode="normal" in2="BackgroundImageFix" result="effect1_dropShadow_2127_31"/>
<feBlend mode="normal" in="SourceGraphic" in2="effect1_dropShadow_2127_31" result="shape"/>
</filter>
</defs>
</svg>
